<svg width="1440" height="788" viewBox="0 0 1440 788" fill="none" xmlns="http://www.w3.org/2000/svg">
<g filter="url(#filter0_f_1102_26)">
<path d="M305.677 174.781C203.211 243.899 240.811 329.575 192.135 296.102C143.46 262.629 150.104 168.45 206.977 85.7471C263.849 3.04408 349.413 -36.8649 398.088 -3.39207C446.764 30.0808 408.144 105.664 305.677 174.781Z" fill="#3EBEDB"/>
</g>
<g opacity="0.4" filter="url(#filter1_f_1102_26)">
<path d="M1596 461.5C1596 581.622 1335.85 556 1142 556C948.148 556 894 581.622 894 461.5C894 341.378 1051.15 244 1245 244C1438.85 244 1596 341.378 1596 461.5Z" fill="#E61F82"/>
</g>
<defs>
<filter id="filter0_f_1102_26" x="-84.4336" y="-259.235" width="747.418" height="806.82" filterUnits="userSpaceOnUse" color-interpolation-filters="sRGB">
<feFlood flood-opacity="0" result="BackgroundImageFix"/>
<feBlend mode="normal" in="SourceGraphic" in2="BackgroundImageFix" result="shape"/>
<feGaussianBlur stdDeviation="122" result="effect1_foregroundBlur_1102_26"/>
</filter>
<filter id="filter1_f_1102_26" x="620" y="-30" width="1250" height="862.291" filterUnits="userSpaceOnUse" color-interpolation-filters="sRGB">
<feFlood flood-opacity="0" result="BackgroundImageFix"/>
<feBlend mode="normal" in="SourceGraphic" in2="BackgroundImageFix" result="shape"/>
<feGaussianBlur stdDeviation="137" result="effect1_foregroundBlur_1102_26"/>
</filter>
</defs>
</svg>
