<svg width="24" height="24" viewBox="0 0 24 24" fill="none" xmlns="http://www.w3.org/2000/svg">
<g clip-path="url(#clip0_149_41)">
<path d="M23.1592 0.00598414C19.1699 0.536895 15.3795 2.06718 12.1399 4.45475C8.90019 6.84232 6.31633 10.0098 4.62817 13.663L1.99317 19.488C1.97355 19.5307 1.95814 19.5753 1.94717 19.621L0.154173 22.467C0.0126797 22.6914 -0.0338862 22.9627 0.0247189 23.2215C0.083324 23.4802 0.2423 23.705 0.466673 23.8465C0.691046 23.988 0.962437 24.0345 1.22114 23.9759C1.47985 23.9173 1.70468 23.7584 1.84617 23.534L6.36417 16.326C6.4381 16.2216 6.54922 16.1495 6.67466 16.1246C6.80011 16.0996 6.93035 16.1237 7.03859 16.1918C7.14684 16.26 7.22484 16.367 7.25657 16.4909C7.2883 16.6148 7.27134 16.7462 7.20917 16.858L6.02017 18.747C5.99184 18.7918 5.97847 18.8444 5.98202 18.8973C5.98556 18.9502 6.00582 19.0006 6.03988 19.0412C6.07393 19.0819 6.12002 19.1106 6.17148 19.1233C6.22294 19.136 6.27711 19.1321 6.32617 19.112L9.76417 17.7C12.1704 16.7395 14.2144 15.048 15.6082 12.864C15.6377 12.8185 15.6516 12.7646 15.6478 12.7105C15.644 12.6564 15.6227 12.6049 15.5872 12.564L13.3102 9.91398C13.2791 9.87757 13.259 9.83301 13.2524 9.78558C13.2458 9.73814 13.2529 9.68981 13.2729 9.64629C13.2929 9.60276 13.3249 9.56586 13.3652 9.53994C13.4054 9.51401 13.4523 9.50015 13.5002 9.49998H17.0002C17.043 9.49963 17.0847 9.48674 17.1202 9.46293C17.1558 9.43912 17.1836 9.40541 17.2002 9.36598C17.689 8.18676 18.3827 7.10338 19.2492 6.16598L23.8002 1.25998C23.9045 1.14726 23.9718 1.0052 23.9928 0.853032C24.0138 0.70086 23.9875 0.545908 23.9176 0.409128C23.8477 0.272347 23.7375 0.160334 23.6018 0.0882336C23.4662 0.0161332 23.3117 -0.0125772 23.1592 0.00598414Z" fill="black"/>
</g>
<defs>
<clipPath id="clip0_149_41">
<rect width="24" height="24" fill="white"/>
</clipPath>
</defs>
</svg>
