<svg width="24" height="24" viewBox="0 0 24 24" fill="none" xmlns="http://www.w3.org/2000/svg">
<path d="M1.5083 12.295V12.795V21.6289H6.54346V20.3848L6.56104 20.3907C7.87462 20.8276 9.74795 21.2113 11.604 21.8751L11.7427 21.9239L11.8853 21.8907C12.469 21.755 14.0346 21.2682 15.9087 20.6661C17.7828 20.064 19.9245 19.3555 21.5142 18.8067C22.2763 18.5431 22.6829 17.6905 22.4028 16.9337V16.9317V16.9297C22.1086 16.1554 21.2587 15.814 20.5317 16.0371L15.6294 17.5351C15.625 17.0249 15.3698 16.5222 14.9556 16.1973L14.9302 16.1777L14.9028 16.1621C12.809 14.9147 12.6278 14.7599 9.68409 13.1953L9.54932 13.123L9.39698 13.1387C8.3875 13.2467 6.67833 13.5285 6.54346 13.5508V12.2949L1.5083 12.295ZM9.3501 14.1543C12.0425 15.5882 12.3492 15.8052 14.3403 16.9922C14.6545 17.2432 14.7373 17.5502 14.5454 17.8262C14.4413 17.9761 14.339 18.0351 14.188 18.0606C14.0385 18.0858 13.8285 18.0592 13.5923 17.9551C12.6916 17.5391 12.2036 17.2714 11.2114 16.7149L10.7759 16.4707L10.2876 17.3418L10.7231 17.5879C11.7185 18.1462 12.2483 18.4356 13.1743 18.8633L13.1763 18.8653H13.1802C13.5588 19.0342 13.9609 19.1114 14.354 19.045C14.5741 19.0079 14.7846 18.9155 14.9732 18.7833L20.8247 16.9923C21.0572 16.9209 21.3673 17.0371 21.4634 17.2813C21.5542 17.5312 21.4434 17.7731 21.188 17.8614C19.6092 18.4064 17.4718 19.1149 15.604 19.7149C13.7892 20.298 12.2603 20.7624 11.7701 20.8829C9.89697 20.2312 8.04 19.8288 6.87553 19.4415L6.5435 19.3302V14.5665L6.62553 14.5528C6.62553 14.5528 8.33901 14.273 9.3501 14.1543Z" fill="black"/>
<path d="M16.1196 2.07617C16.318 2.07617 16.5273 2.16414 16.77 2.40234C17.0127 2.64055 17.2646 3.02395 17.479 3.52148C17.7135 4.06553 17.8988 4.74886 18.0239 5.50977H14.2153C14.3405 4.74886 14.5258 4.06553 14.7603 3.52148C14.9747 3.02395 15.2265 2.64055 15.4692 2.40234C15.7119 2.16414 15.9213 2.07617 16.1196 2.07617ZM14.2075 2.42383C14.0765 2.64049 13.9521 2.87012 13.8423 3.125C13.5505 3.80206 13.3396 4.6183 13.2056 5.50977H11.0454C11.6155 4.08435 12.7652 2.9607 14.2075 2.42383ZM18.0317 2.42383C19.4737 2.96072 20.6241 4.08429 21.1938 5.50977H19.0337C18.8996 4.6183 18.6888 3.80206 18.397 3.125C18.2871 2.87012 18.1628 2.64049 18.0317 2.42383ZM10.7505 6.50977H10.8169H13.0903C13.0659 6.84776 13.0474 7.18931 13.0474 7.54297C13.0474 7.89663 13.0659 8.23818 13.0903 8.57617H10.8169H10.7505C10.6867 8.24139 10.6509 7.89665 10.6509 7.54297C10.6509 7.18929 10.6867 6.8445 10.7505 6.50977ZM14.0923 6.50977H18.147C18.1737 6.84588 18.1919 7.18843 18.1919 7.54297C18.1919 7.8975 18.1737 8.24006 18.147 8.57617H14.0923C14.0656 8.24006 14.0474 7.8975 14.0474 7.54297C14.0474 7.18843 14.0656 6.84588 14.0923 6.50977ZM19.1489 6.50977H21.4224H21.4868C21.5506 6.8445 21.5864 7.18929 21.5864 7.54297C21.5864 7.89665 21.5506 8.24139 21.4868 8.57617H21.4224H19.1489C19.1733 8.23818 19.1919 7.89663 19.1919 7.54297C19.1919 7.18931 19.1734 6.84776 19.1489 6.50977ZM11.0454 9.57617H13.2056C13.3396 10.4676 13.5505 11.2839 13.8423 11.9609C13.9521 12.2158 14.0765 12.4454 14.2075 12.6621C12.7653 12.1248 11.6155 11.0019 11.0454 9.57617ZM14.2153 9.57617H18.0239C17.8988 10.3371 17.7135 11.0204 17.479 11.5645C17.2646 12.062 17.0127 12.4473 16.77 12.6855C16.5273 12.9237 16.318 13.0117 16.1196 13.0117C15.9213 13.0117 15.7119 12.9237 15.4692 12.6855C15.2265 12.4473 14.9747 12.062 14.7603 11.5645C14.5258 11.0204 14.3405 10.3371 14.2153 9.57617ZM19.0337 9.57617H21.1938C20.6242 11.0019 19.4736 12.1248 18.0317 12.6621C18.1628 12.4454 18.2871 12.2158 18.397 11.9609C18.6888 11.2839 18.8996 10.4676 19.0337 9.57617Z" fill="black"/>
</svg>
