<svg width="1436" height="546" viewBox="0 0 1436 546" fill="none" xmlns="http://www.w3.org/2000/svg">
<g opacity="0.5">
<path opacity="0.4" d="M55.5 0.5V546" stroke="url(#paint0_linear_627_307)"/>
<path opacity="0.2" d="M13 0.5V546" stroke="url(#paint1_linear_627_307)"/>
<path opacity="0.5" d="M99 0.5V546" stroke="url(#paint2_linear_627_307)"/>
<path d="M142.5 0.5V546" stroke="url(#paint3_linear_627_307)"/>
<path d="M186 0.5V546" stroke="url(#paint4_linear_627_307)"/>
<path d="M229.5 0.5V546" stroke="url(#paint5_linear_627_307)"/>
<path d="M273 0.5V546" stroke="url(#paint6_linear_627_307)"/>
<path d="M316.5 0.5V546" stroke="url(#paint7_linear_627_307)"/>
<path d="M360 0.5V546" stroke="url(#paint8_linear_627_307)"/>
<path d="M403.5 0.5V546" stroke="url(#paint9_linear_627_307)"/>
<path d="M447 0.5V546" stroke="url(#paint10_linear_627_307)"/>
<path d="M490.5 0.5V546" stroke="url(#paint11_linear_627_307)"/>
<path d="M534 0.5V546" stroke="url(#paint12_linear_627_307)"/>
<path d="M577.5 0.5V546" stroke="url(#paint13_linear_627_307)"/>
<path d="M621 0.5V546" stroke="url(#paint14_linear_627_307)"/>
<path d="M664.5 0.5V546" stroke="url(#paint15_linear_627_307)"/>
<path d="M708 0.5V546" stroke="url(#paint16_linear_627_307)"/>
<path d="M751.5 0.5V546" stroke="url(#paint17_linear_627_307)"/>
<path d="M795 0.5V546" stroke="url(#paint18_linear_627_307)"/>
<path d="M838.5 0.5V546" stroke="url(#paint19_linear_627_307)"/>
<path d="M882 0.5V546" stroke="url(#paint20_linear_627_307)"/>
<path d="M925.5 0.5V546" stroke="url(#paint21_linear_627_307)"/>
<path d="M969 0.5V546" stroke="url(#paint22_linear_627_307)"/>
<path d="M1012.5 0.5V546" stroke="url(#paint23_linear_627_307)"/>
<path d="M1056 0.5V546" stroke="url(#paint24_linear_627_307)"/>
<path d="M1099.5 0.5V546" stroke="url(#paint25_linear_627_307)"/>
<path d="M1143 0.5V546" stroke="url(#paint26_linear_627_307)"/>
<path d="M1186.5 0.5V546" stroke="url(#paint27_linear_627_307)"/>
<path d="M1230 0.5V546" stroke="url(#paint28_linear_627_307)"/>
<path opacity="0.6" d="M1273.5 0.5V546" stroke="url(#paint29_linear_627_307)"/>
<path opacity="0.5" d="M1317 0.5V546" stroke="url(#paint30_linear_627_307)"/>
<path opacity="0.4" d="M1360.5 0.5V546" stroke="url(#paint31_linear_627_307)"/>
<path opacity="0.3" d="M1404 0.5V546" stroke="url(#paint32_linear_627_307)"/>
</g>
<path opacity="0.5" d="M0.5 40H1440" stroke="url(#paint33_linear_627_307)"/>
<path opacity="0.6" d="M0.5 84.75H1440" stroke="url(#paint34_linear_627_307)"/>
<path opacity="0.7" d="M0.5 129.5H1440" stroke="url(#paint35_linear_627_307)"/>
<path d="M0.5 174.25H1440" stroke="url(#paint36_linear_627_307)"/>
<path d="M0.5 219H1440" stroke="url(#paint37_linear_627_307)"/>
<path d="M0.5 263.75H1440" stroke="url(#paint38_linear_627_307)"/>
<path d="M0.5 308.5H1440" stroke="url(#paint39_linear_627_307)"/>
<path d="M0.5 353.25H1440" stroke="url(#paint40_linear_627_307)"/>
<path d="M0.5 398H1440" stroke="url(#paint41_linear_627_307)"/>
<path d="M0.5 442.75H1440" stroke="url(#paint42_linear_627_307)"/>
<path d="M0.5 487.5H1440" stroke="url(#paint43_linear_627_307)"/>
<defs>
<linearGradient id="paint0_linear_627_307" x1="56" y1="0.5" x2="56" y2="546" gradientUnits="userSpaceOnUse">
<stop/>
<stop offset="1" stop-color="#E05A32" stop-opacity="0.5"/>
</linearGradient>
<linearGradient id="paint1_linear_627_307" x1="13.5" y1="0.5" x2="13.5" y2="546" gradientUnits="userSpaceOnUse">
<stop/>
<stop offset="1" stop-color="#E05A32" stop-opacity="0.5"/>
</linearGradient>
<linearGradient id="paint2_linear_627_307" x1="99.5" y1="0.5" x2="99.5" y2="546" gradientUnits="userSpaceOnUse">
<stop/>
<stop offset="1" stop-color="#E05A32" stop-opacity="0.5"/>
</linearGradient>
<linearGradient id="paint3_linear_627_307" x1="143" y1="0.5" x2="143" y2="546" gradientUnits="userSpaceOnUse">
<stop/>
<stop offset="1" stop-color="#E05A32" stop-opacity="0.5"/>
</linearGradient>
<linearGradient id="paint4_linear_627_307" x1="186.5" y1="0.5" x2="186.5" y2="546" gradientUnits="userSpaceOnUse">
<stop/>
<stop offset="1" stop-color="#E05A32" stop-opacity="0.5"/>
</linearGradient>
<linearGradient id="paint5_linear_627_307" x1="230" y1="0.5" x2="230" y2="546" gradientUnits="userSpaceOnUse">
<stop/>
<stop offset="1" stop-color="#E05A32" stop-opacity="0.5"/>
</linearGradient>
<linearGradient id="paint6_linear_627_307" x1="273.5" y1="0.5" x2="273.5" y2="546" gradientUnits="userSpaceOnUse">
<stop/>
<stop offset="1" stop-color="#E05A32" stop-opacity="0.5"/>
</linearGradient>
<linearGradient id="paint7_linear_627_307" x1="317" y1="0.5" x2="317" y2="546" gradientUnits="userSpaceOnUse">
<stop/>
<stop offset="1" stop-color="#E05A32" stop-opacity="0.5"/>
</linearGradient>
<linearGradient id="paint8_linear_627_307" x1="360.5" y1="0.5" x2="360.5" y2="546" gradientUnits="userSpaceOnUse">
<stop/>
<stop offset="1" stop-color="#E05A32" stop-opacity="0.5"/>
</linearGradient>
<linearGradient id="paint9_linear_627_307" x1="404" y1="0.5" x2="404" y2="546" gradientUnits="userSpaceOnUse">
<stop/>
<stop offset="1" stop-color="#E05A32" stop-opacity="0.5"/>
</linearGradient>
<linearGradient id="paint10_linear_627_307" x1="447.5" y1="0.5" x2="447.5" y2="546" gradientUnits="userSpaceOnUse">
<stop/>
<stop offset="1" stop-color="#E05A32" stop-opacity="0.5"/>
</linearGradient>
<linearGradient id="paint11_linear_627_307" x1="491" y1="0.5" x2="491" y2="546" gradientUnits="userSpaceOnUse">
<stop/>
<stop offset="1" stop-color="#E05A32" stop-opacity="0.5"/>
</linearGradient>
<linearGradient id="paint12_linear_627_307" x1="534.5" y1="0.5" x2="534.5" y2="546" gradientUnits="userSpaceOnUse">
<stop/>
<stop offset="1" stop-color="#E05A32" stop-opacity="0.5"/>
</linearGradient>
<linearGradient id="paint13_linear_627_307" x1="578" y1="0.5" x2="578" y2="546" gradientUnits="userSpaceOnUse">
<stop/>
<stop offset="1" stop-color="#E05A32" stop-opacity="0.5"/>
</linearGradient>
<linearGradient id="paint14_linear_627_307" x1="621.5" y1="0.5" x2="621.5" y2="546" gradientUnits="userSpaceOnUse">
<stop/>
<stop offset="1" stop-color="#E05A32" stop-opacity="0.5"/>
</linearGradient>
<linearGradient id="paint15_linear_627_307" x1="665" y1="0.5" x2="665" y2="546" gradientUnits="userSpaceOnUse">
<stop/>
<stop offset="1" stop-color="#E05A32" stop-opacity="0.5"/>
</linearGradient>
<linearGradient id="paint16_linear_627_307" x1="708.5" y1="0.5" x2="708.5" y2="546" gradientUnits="userSpaceOnUse">
<stop/>
<stop offset="1" stop-color="#E05A32" stop-opacity="0.5"/>
</linearGradient>
<linearGradient id="paint17_linear_627_307" x1="752" y1="0.5" x2="752" y2="546" gradientUnits="userSpaceOnUse">
<stop/>
<stop offset="1" stop-color="#E05A32" stop-opacity="0.5"/>
</linearGradient>
<linearGradient id="paint18_linear_627_307" x1="795.5" y1="0.5" x2="795.5" y2="546" gradientUnits="userSpaceOnUse">
<stop/>
<stop offset="1" stop-color="#E05A32" stop-opacity="0.5"/>
</linearGradient>
<linearGradient id="paint19_linear_627_307" x1="839" y1="0.5" x2="839" y2="546" gradientUnits="userSpaceOnUse">
<stop/>
<stop offset="1" stop-color="#E05A32" stop-opacity="0.5"/>
</linearGradient>
<linearGradient id="paint20_linear_627_307" x1="882.5" y1="0.5" x2="882.5" y2="546" gradientUnits="userSpaceOnUse">
<stop/>
<stop offset="1" stop-color="#E05A32" stop-opacity="0.5"/>
</linearGradient>
<linearGradient id="paint21_linear_627_307" x1="926" y1="0.5" x2="926" y2="546" gradientUnits="userSpaceOnUse">
<stop/>
<stop offset="1" stop-color="#E05A32" stop-opacity="0.5"/>
</linearGradient>
<linearGradient id="paint22_linear_627_307" x1="969.5" y1="0.5" x2="969.5" y2="546" gradientUnits="userSpaceOnUse">
<stop/>
<stop offset="1" stop-color="#E05A32" stop-opacity="0.5"/>
</linearGradient>
<linearGradient id="paint23_linear_627_307" x1="1013" y1="0.5" x2="1013" y2="546" gradientUnits="userSpaceOnUse">
<stop/>
<stop offset="1" stop-color="#E05A32" stop-opacity="0.5"/>
</linearGradient>
<linearGradient id="paint24_linear_627_307" x1="1056.5" y1="0.5" x2="1056.5" y2="546" gradientUnits="userSpaceOnUse">
<stop/>
<stop offset="1" stop-color="#E05A32" stop-opacity="0.5"/>
</linearGradient>
<linearGradient id="paint25_linear_627_307" x1="1100" y1="0.5" x2="1100" y2="546" gradientUnits="userSpaceOnUse">
<stop/>
<stop offset="1" stop-color="#E05A32" stop-opacity="0.5"/>
</linearGradient>
<linearGradient id="paint26_linear_627_307" x1="1143.5" y1="0.5" x2="1143.5" y2="546" gradientUnits="userSpaceOnUse">
<stop/>
<stop offset="1" stop-color="#E05A32" stop-opacity="0.5"/>
</linearGradient>
<linearGradient id="paint27_linear_627_307" x1="1187" y1="0.5" x2="1187" y2="546" gradientUnits="userSpaceOnUse">
<stop/>
<stop offset="1" stop-color="#E05A32" stop-opacity="0.5"/>
</linearGradient>
<linearGradient id="paint28_linear_627_307" x1="1230.5" y1="0.5" x2="1230.5" y2="546" gradientUnits="userSpaceOnUse">
<stop/>
<stop offset="1" stop-color="#E05A32" stop-opacity="0.5"/>
</linearGradient>
<linearGradient id="paint29_linear_627_307" x1="1274" y1="0.5" x2="1274" y2="546" gradientUnits="userSpaceOnUse">
<stop/>
<stop offset="1" stop-color="#E05A32" stop-opacity="0.5"/>
</linearGradient>
<linearGradient id="paint30_linear_627_307" x1="1317.5" y1="0.5" x2="1317.5" y2="546" gradientUnits="userSpaceOnUse">
<stop/>
<stop offset="1" stop-color="#E05A32" stop-opacity="0.5"/>
</linearGradient>
<linearGradient id="paint31_linear_627_307" x1="1361" y1="0.5" x2="1361" y2="546" gradientUnits="userSpaceOnUse">
<stop/>
<stop offset="1" stop-color="#E05A32" stop-opacity="0.5"/>
</linearGradient>
<linearGradient id="paint32_linear_627_307" x1="1404.5" y1="0.5" x2="1404.5" y2="546" gradientUnits="userSpaceOnUse">
<stop/>
<stop offset="1" stop-color="#E05A32" stop-opacity="0.5"/>
</linearGradient>
<linearGradient id="paint33_linear_627_307" x1="720.25" y1="40" x2="720.25" y2="41" gradientUnits="userSpaceOnUse">
<stop/>
<stop offset="1" stop-color="#E05A32"/>
</linearGradient>
<linearGradient id="paint34_linear_627_307" x1="720.25" y1="84.75" x2="720.25" y2="85.75" gradientUnits="userSpaceOnUse">
<stop/>
<stop offset="1" stop-color="#E05A32"/>
</linearGradient>
<linearGradient id="paint35_linear_627_307" x1="720.25" y1="129.5" x2="720.25" y2="130.5" gradientUnits="userSpaceOnUse">
<stop/>
<stop offset="1" stop-color="#E05A32"/>
</linearGradient>
<linearGradient id="paint36_linear_627_307" x1="720.25" y1="174.25" x2="720.25" y2="175.25" gradientUnits="userSpaceOnUse">
<stop/>
<stop offset="1" stop-color="#E05A32"/>
</linearGradient>
<linearGradient id="paint37_linear_627_307" x1="720.25" y1="219" x2="720.25" y2="220" gradientUnits="userSpaceOnUse">
<stop/>
<stop offset="1" stop-color="#E05A32"/>
</linearGradient>
<linearGradient id="paint38_linear_627_307" x1="720.25" y1="263.75" x2="720.25" y2="264.75" gradientUnits="userSpaceOnUse">
<stop/>
<stop offset="1" stop-color="#E05A32"/>
</linearGradient>
<linearGradient id="paint39_linear_627_307" x1="720.25" y1="308.5" x2="720.25" y2="309.5" gradientUnits="userSpaceOnUse">
<stop/>
<stop offset="1" stop-color="#E05A32"/>
</linearGradient>
<linearGradient id="paint40_linear_627_307" x1="720.25" y1="353.25" x2="720.25" y2="354.25" gradientUnits="userSpaceOnUse">
<stop/>
<stop offset="1" stop-color="#E05A32"/>
</linearGradient>
<linearGradient id="paint41_linear_627_307" x1="720.25" y1="398" x2="720.25" y2="399" gradientUnits="userSpaceOnUse">
<stop/>
<stop offset="1" stop-color="#E05A32"/>
</linearGradient>
<linearGradient id="paint42_linear_627_307" x1="720.25" y1="442.75" x2="720.25" y2="443.75" gradientUnits="userSpaceOnUse">
<stop/>
<stop offset="1" stop-color="#E05A32"/>
</linearGradient>
<linearGradient id="paint43_linear_627_307" x1="720.25" y1="487.5" x2="720.25" y2="488.5" gradientUnits="userSpaceOnUse">
<stop/>
<stop offset="1" stop-color="#E05A32"/>
</linearGradient>
</defs>
</svg>
