<?xml version="1.0" encoding="UTF-8" standalone="no" ?>
<!DOCTYPE svg PUBLIC "-//W3C//DTD SVG 1.1//EN" "http://www.w3.org/Graphics/SVG/1.1/DTD/svg11.dtd">
<svg xmlns="http://www.w3.org/2000/svg" xmlns:xlink="http://www.w3.org/1999/xlink" version="1.1" width="1080" height="1080" viewBox="0 0 1080 1080" xml:space="preserve">
<desc>Created with Fabric.js 5.2.4</desc>
<defs>
</defs>
<g transform="matrix(1 0 0 1 540 540)" id="a7acaf23-c300-4f19-addf-d6b160b43243"  >
<rect style="stroke: none; stroke-width: 1; stroke-dasharray: none; stroke-linecap: butt; stroke-dashoffset: 0; stroke-linejoin: miter; stroke-miterlimit: 4; fill: #116466; fill-rule: nonzero; opacity: 1;" vector-effect="non-scaling-stroke"  x="-540" y="-540" rx="0" ry="0" width="1080" height="1080" />
</g>
<g transform="matrix(1 0 0 1 540 540)" id="272c0644-7fd8-4a72-972d-650b50f6644a"  >
</g>
<g transform="matrix(1 0 0 1 540 540)"  >
<g style="" vector-effect="non-scaling-stroke"   >
		<g transform="matrix(0.13 0 0 -0.13 0 0)"  >
<path style="stroke: none; stroke-width: 1; stroke-dasharray: none; stroke-linecap: butt; stroke-dashoffset: 0; stroke-linejoin: miter; stroke-miterlimit: 4; fill: rgb(209,232,226); fill-rule: nonzero; opacity: 1;" vector-effect="non-scaling-stroke"  transform=" translate(-2649.44, -2328.79)" d="M 283 4540 C 191 4521 130 4472 100 4393 C 80 4340 80 4315 80 2837 L 80 1334 L 105 1283 C 119 1256 146 1219 164 1202 C 235 1138 199 1140 1181 1140 L 2070 1140 L 2068 853 L 2065 565 L 1688 560 L 1312 555 L 1269 525 C 1212 485 1168 413 1163 352 C 1157 291 1187 220 1241 169 C 1274 138 1292 130 1348 120 C 1396 113 1783 110 2690 112 L 3965 115 L 4013 139 C 4068 166 4114 223 4131 284 C 4156 374 4105 486 4016 533 C 3976 554 3963 555 3605 560 L 3235 565 L 3235 850 L 3235 1135 L 4140 1140 C 4965 1145 5048 1147 5081 1162 C 5125 1183 5177 1240 5202 1296 C 5220 1337 5220 1393 5218 2858 L 5215 4377 L 5179 4431 C 5154 4469 5127 4494 5089 4515 L 5035 4545 L 2680 4546 C 1385 4547 306 4544 283 4540 z M 4860 2846 C 4860 1789 4857 1510 4848 1503 C 4831 1493 459 1493 443 1503 C 433 1510 430 1786 430 2830 C 430 3555 433 4155 436 4164 C 442 4179 646 4180 2651 4180 L 4860 4180 L 4860 2846 z" stroke-linecap="round" />
</g>
		<g transform="matrix(0.13 0 0 -0.13 13.26 -100.76)"  >
<path style="stroke: none; stroke-width: 1; stroke-dasharray: none; stroke-linecap: butt; stroke-dashoffset: 0; stroke-linejoin: miter; stroke-miterlimit: 4; fill: rgb(209,232,226); fill-rule: nonzero; opacity: 1;" vector-effect="non-scaling-stroke"  transform=" translate(-2748.91, -3084.5)" d="M 3044 3593 C 3004 3585 2945 3523 2860 3401 C 2813 3334 2750 3244 2720 3201 C 2690 3159 2650 3101 2631 3074 C 2612 3047 2593 3024 2588 3022 C 2584 3020 2580 3012 2580 3004 C 2580 2996 2576 2990 2570 2990 C 2565 2990 2560 2985 2560 2979 C 2560 2968 2510 2897 2498 2892 C 2493 2890 2490 2884 2490 2878 C 2490 2873 2484 2863 2478 2856 C 2471 2848 2459 2834 2452 2824 C 2445 2813 2413 2767 2380 2721 C 2347 2675 2320 2633 2320 2629 C 2320 2618 2380 2570 2395 2570 C 2402 2570 2423 2589 2443 2613 C 2462 2636 2495 2674 2516 2696 C 2538 2719 2583 2769 2617 2808 C 2652 2846 2707 2906 2741 2941 C 2775 2976 2832 3039 2868 3080 C 2905 3121 2953 3173 2975 3196 C 3031 3254 3142 3379 3158 3401 C 3164 3411 3173 3439 3176 3463 C 3185 3527 3160 3576 3111 3590 C 3091 3595 3073 3599 3070 3599 C 3067 3598 3055 3595 3044 3593 z M 3080 3572 C 3080 3567 3067 3552 3051 3537 C 3035 3523 3017 3504 3012 3494 C 3001 3474 2973 3481 2964 3505 C 2957 3523 2986 3560 3007 3560 C 3014 3560 3020 3565 3020 3570 C 3020 3576 3034 3580 3050 3580 C 3067 3580 3080 3576 3080 3572 z" stroke-linecap="round" />
</g>
		<g transform="matrix(0.13 0 0 -0.13 158.12 -76.86)"  >
<path style="stroke: none; stroke-width: 1; stroke-dasharray: none; stroke-linecap: butt; stroke-dashoffset: 0; stroke-linejoin: miter; stroke-miterlimit: 4; fill: rgb(209,232,226); fill-rule: nonzero; opacity: 1;" vector-effect="non-scaling-stroke"  transform=" translate(-3835.33, -2905.23)" d="M 3350 3382 C 3312 3349 3307 3338 3302 3292 C 3293 3195 3323 3170 3585 3050 C 3848 2930 3870 2919 3870 2906 C 3870 2896 3854 2887 3755 2845 C 3733 2835 3675 2808 3625 2785 C 3576 2762 3504 2728 3465 2711 C 3359 2663 3347 2655 3322 2613 C 3266 2519 3337 2390 3445 2390 C 3462 2390 3510 2406 3551 2426 C 3592 2446 3702 2497 3795 2540 C 3889 2583 4012 2640 4070 2668 C 4128 2695 4207 2732 4245 2750 C 4339 2793 4370 2832 4370 2911 C 4370 3006 4352 3020 4050 3157 C 4020 3171 3961 3198 3920 3218 C 3432 3448 3426 3449 3350 3382 z" stroke-linecap="round" />
</g>
		<g transform="matrix(0.13 0 0 -0.13 -163.42 -75.7)"  >
<path style="stroke: none; stroke-width: 1; stroke-dasharray: none; stroke-linecap: butt; stroke-dashoffset: 0; stroke-linejoin: miter; stroke-miterlimit: 4; fill: rgb(209,232,226); fill-rule: nonzero; opacity: 1;" vector-effect="non-scaling-stroke"  transform=" translate(-1423.81, -2896.58)" d="M 1745 3395 C 1694 3371 1298 3189 1255 3170 C 1233 3160 1150 3120 1070 3082 C 906 3002 890 2986 890 2900 C 890 2822 916 2786 1004 2745 C 1043 2727 1116 2693 1165 2670 C 1522 2502 1731 2406 1764 2393 C 1874 2353 1977 2445 1954 2565 C 1944 2621 1897 2656 1740 2726 C 1609 2785 1486 2842 1421 2873 C 1384 2891 1385 2908 1422 2923 C 1440 2931 1498 2958 1550 2982 C 1602 3007 1698 3051 1763 3081 C 1902 3145 1946 3182 1956 3245 C 1973 3360 1853 3445 1745 3395 z" stroke-linecap="round" />
</g>
		<g transform="matrix(0.13 0 0 -0.13 -62.45 -18.76)"  >
<path style="stroke: none; stroke-width: 1; stroke-dasharray: none; stroke-linecap: butt; stroke-dashoffset: 0; stroke-linejoin: miter; stroke-miterlimit: 4; fill: rgb(209,232,226); fill-rule: nonzero; opacity: 1;" vector-effect="non-scaling-stroke"  transform=" translate(-2181.04, -2469.51)" d="M 2166 2555 C 2152 2542 2140 2524 2140 2515 C 2140 2489 2091 2401 2071 2390 C 2060 2385 2038 2380 2021 2380 C 2004 2380 1990 2376 1990 2370 C 1990 2354 2144 2358 2236 2377 C 2338 2398 2374 2422 2372 2469 C 2370 2556 2230 2614 2166 2555 z" stroke-linecap="round" />
</g>
</g>
</g>
<g transform="matrix(NaN NaN NaN NaN 0 0)"  >
<g style=""   >
</g>
</g>
<g transform="matrix(NaN NaN NaN NaN 0 0)"  >
<g style=""   >
</g>
</g>
</svg>