<svg width="58" height="58" viewBox="0 0 58 58" fill="none" xmlns="http://www.w3.org/2000/svg">
<g id="2528085_config_configure_control_management_options_icon" clip-path="url(#clip0_231_454)">
<g id="Group">
<g id="Group_2">
<path id="Vector" d="M6.11972 3.4465C8.55948 5.4999 11.1377 6.79374 14.0401 8.04242C15.3655 8.61262 15.5689 8.45624 14.9623 9.62399C14.619 10.2847 13.7626 10.8652 13.2344 11.4162C11.8551 12.8553 10.5147 14.3151 9.26196 15.8668C9.85349 15.8668 10.445 15.8668 11.0365 15.8668C9.02713 14.1917 7.11988 12.3898 5.45192 10.3688C3.79775 8.3646 4.13559 7.36614 5.69889 5.56386C6.49996 4.64033 7.34012 3.79954 8.27336 3.01021C9.50816 1.96582 7.72537 0.19821 6.49879 1.23564C4.44931 2.96908 0.900209 5.95168 1.68513 8.99586C2.5546 12.368 6.72969 15.5305 9.26196 17.6413C9.7393 18.0392 10.5807 18.2059 11.0365 17.6413C12.7079 15.5712 14.5546 13.6781 16.3926 11.7582C17.2672 10.8447 18.8198 9.70465 18.4522 8.22618C18.1468 6.99782 16.6418 6.46534 15.6065 6.00121C12.8017 4.74373 10.2713 3.67255 7.89429 1.67193C6.6661 0.638248 4.88199 2.40478 6.11972 3.4465Z" fill="#174689"/>
</g>
<g id="Group_3">
<path id="Vector_2" d="M44.8374 2.95464C40.8906 6.81281 32.231 13.7512 39.1902 19.3829C45.6286 24.5931 51.8444 15.6142 55.6852 11.647C54.9861 11.4624 54.287 11.2778 53.5879 11.0933C55.4605 17.9268 55.4499 26.1708 46.0766 26.6214C42.9931 26.7696 38.9368 25.559 35.9853 26.564C33.6953 27.3437 32.2017 29.8795 30.6466 31.6434C27.7398 34.9407 24.833 38.2379 21.9261 41.5351C19.2872 44.5284 16.7469 47.6928 13.763 50.3533C12.5028 51.548 11.125 52.5771 9.62948 53.4404C4.96998 51.5503 3.78778 49.7429 6.08287 48.018C7.10408 46.087 10.0424 44.156 11.6132 42.6239C18.4602 35.9454 25.3072 29.2669 32.1542 22.5884C32.4711 22.2793 32.5983 21.7929 32.4769 21.3675C31.1925 16.8663 30.9272 11.3167 34.2068 7.67291C38.1083 3.33811 42.6174 2.98775 47.9935 3.51487C47.6977 2.80084 47.402 2.08681 47.1062 1.37278C46.2168 1.98226 45.3273 2.59175 44.4379 3.20124C43.0294 3.99182 44.2931 6.16045 45.7045 5.36821C47.4686 4.37805 47.3341 4.45098 48.8808 3.14734C49.7981 2.37418 48.9646 1.10047 47.9935 1.00525C41.0103 0.320559 35.5184 1.34678 31.2034 7.32936C29.395 9.83657 29.1331 12.1059 29.1528 15.1742C29.1605 16.3841 29.3667 17.6299 29.3422 18.8253C29.2884 21.4549 28.8508 21.9612 27.2195 23.8962C20.678 31.6555 12.3103 38.3194 5.09835 45.4729C2.21358 48.3343 -1.82891 52.7852 3.21654 55.9782C8.11941 59.0809 13.6783 53.995 16.9726 50.7536C23.3844 44.4448 28.3323 36.2558 35.1044 30.3744C39.7939 26.3018 48.083 31.3647 53.4062 26.9388C58.3705 22.8112 57.5187 15.9394 56.0079 10.4261C55.7613 9.5261 54.57 9.19133 53.9106 9.87242C52.4421 11.3893 49.1007 16.3911 47.0006 16.978C44.9343 14.7995 42.8679 12.6211 40.8015 10.4427C41.1482 10.0926 41.495 9.74247 41.8417 9.39237C42.6129 7.94453 45.4337 5.88097 46.6119 4.7292C47.7688 3.5983 45.9936 1.82435 44.8374 2.95464Z" fill="#174689"/>
</g>
<g id="Group_4">
<path id="Vector_3" d="M13.45 14.8597C15.6857 16.2468 17.029 18.5035 18.6302 20.5224C20.3692 22.715 22.3187 24.7022 24.4322 26.5338C25.6474 27.587 27.4299 25.8193 26.2067 24.7592C23.7734 22.6504 21.5932 20.332 19.6543 17.7604C18.1979 15.8287 16.8019 13.9865 14.7166 12.6927C13.3404 11.8389 12.0788 14.009 13.45 14.8597Z" fill="#174689"/>
</g>
<g id="Group_5">
<path id="Vector_4" d="M38.868 32.4187C42.3723 35.554 46.1757 38.6892 48.995 42.4501C50.0202 43.8177 51.1292 44.9249 52.2515 46.2028C54.4235 48.676 55.1077 49.7374 53.047 52.3949C52.4398 54.436 51.2426 55.0733 49.4554 54.3068C47.9545 54.4541 46.7108 53.9433 45.7242 52.7743C42.2971 50.0409 39.1847 46.7555 36.3232 43.4463C35.6289 42.6434 34.7565 41.8057 34.2038 40.8987C32.8026 38.599 33.5561 38.6028 35.042 37.1534C36.7905 35.4479 38.6037 33.8189 40.4535 32.2243C41.6789 31.168 39.8971 29.3996 38.679 30.4497C35.7959 32.935 33.0506 35.5316 30.4089 38.272C30.0597 38.6341 29.8792 39.3504 30.2127 39.7926C34.3808 45.3204 39.1917 51.3783 44.9383 55.3537C47.9055 57.4064 51.8346 58.0768 54.807 55.5202C57.7305 53.0057 57.8455 48.7768 55.505 45.8712C51.0887 40.3887 45.919 35.365 40.6426 30.6441C39.4422 29.57 37.6614 31.339 38.868 32.4187Z" fill="#174689"/>
</g>
<g id="Group_6">
<path id="Vector_5" d="M31.8592 33.2359C32.5663 33.8925 33.2733 34.5492 33.9803 35.2058C35.1626 36.3038 36.9414 34.5332 35.7549 33.4312C35.0479 32.7746 34.3408 32.118 33.6338 31.4613C32.4515 30.3633 30.6727 32.134 31.8592 33.2359Z" fill="#174689"/>
</g>
<g id="Group_7">
<path id="Vector_6" d="M49.0587 42.3745C47.8899 43.9524 46.5943 45.3388 45.3668 46.835C44.1179 48.3571 43.038 49.9307 41.6458 51.342C40.5104 52.4928 42.2838 54.2686 43.4203 53.1166C44.8845 51.6324 45.9938 49.9252 47.3569 48.3722C48.7087 46.832 49.9895 45.31 51.2257 43.6412C52.1877 42.3424 50.0105 41.0896 49.0587 42.3745Z" fill="#174689"/>
</g>
</g>
</g>
<defs>
<clipPath id="clip0_231_454">
<rect width="58" height="58" fill="white"/>
</clipPath>
</defs>
</svg>
