<svg width="21" height="21" viewBox="0 0 21 21" fill="none" xmlns="http://www.w3.org/2000/svg">
<g id="367593_linkedin_business_network_social_icon">
<path id="Vector" d="M2.10517 7.62283H5.79703V18.7328H2.10517V7.62283ZM3.97581 2.26733C2.71224 2.26733 1.88672 3.09688 1.88672 4.18568C1.88672 5.25208 2.68808 6.10574 3.92749 6.10574H3.95104C5.23876 6.10574 6.0407 5.25204 6.0407 4.18568C6.01654 3.09688 5.2388 2.26733 3.97581 2.26733ZM14.8616 7.36184C12.9019 7.36184 12.0239 8.43973 11.5342 9.19565V7.62283H7.8412C7.89009 8.66507 7.8412 18.7328 7.8412 18.7328H11.5342V12.5282C11.5342 12.1959 11.5583 11.8648 11.6555 11.6268C11.9229 10.9634 12.5305 10.2764 13.5497 10.2764C14.8869 10.2764 15.4209 11.2957 15.4209 12.7885V18.7328H19.1133V12.3621C19.1133 8.94964 17.2921 7.36184 14.8616 7.36184Z" fill="#174689"/>
</g>
</svg>
