<svg width="61" height="61" viewBox="0 0 61 61" fill="none" xmlns="http://www.w3.org/2000/svg">
<g id="4079576_consulting_leadership_online_process_support_icon">
<g id="Online Consulting">
<path id="Vector" d="M39.0781 19.0625V55.2812C39.0781 55.534 38.9777 55.7765 38.799 55.9552C38.6202 56.134 38.3778 56.2344 38.125 56.2344H13.3438C13.091 56.2344 12.8485 56.134 12.6698 55.9552C12.491 55.7765 12.3906 55.534 12.3906 55.2812V13.3438C12.3906 13.091 12.491 12.8485 12.6698 12.6698C12.8485 12.491 13.091 12.3906 13.3438 12.3906H27.6406V10.4844H13.3438C12.5854 10.4844 11.8581 10.7856 11.3219 11.3219C10.7856 11.8581 10.4844 12.5854 10.4844 13.3438V55.2812C10.4844 56.0396 10.7856 56.7669 11.3219 57.3031C11.8581 57.8394 12.5854 58.1406 13.3438 58.1406H38.125C38.8834 58.1406 39.6106 57.8394 40.1469 57.3031C40.6831 56.7669 40.9844 56.0396 40.9844 55.2812V19.0625H39.0781Z" fill="#174689"/>
<path id="Vector_2" d="M45.75 2.85938H34.3125C33.0486 2.85938 31.8364 3.36147 30.9427 4.25519C30.049 5.14892 29.5469 6.36108 29.5469 7.625V20.9688C29.5465 21.1438 29.5943 21.3155 29.6851 21.4651C29.7759 21.6148 29.9062 21.7365 30.0616 21.817C30.1981 21.8842 30.3479 21.9201 30.5 21.9219C30.6986 21.9206 30.8919 21.8573 31.0528 21.7408L37.4769 17.1562H45.75C47.0139 17.1562 48.2261 16.6542 49.1198 15.7604C50.0135 14.8667 50.5156 13.6545 50.5156 12.3906V7.625C50.5156 6.36108 50.0135 5.14892 49.1198 4.25519C48.2261 3.36147 47.0139 2.85938 45.75 2.85938ZM36.2188 11.4375C36.0302 11.4375 35.846 11.3816 35.6892 11.2769C35.5325 11.1721 35.4103 11.0233 35.3382 10.8491C35.266 10.675 35.2472 10.4833 35.2839 10.2984C35.3207 10.1135 35.4115 9.94371 35.5448 9.81041C35.6781 9.67712 35.8479 9.58634 36.0328 9.54956C36.2177 9.51279 36.4093 9.53166 36.5835 9.6038C36.7577 9.67594 36.9065 9.79811 37.0112 9.95485C37.116 10.1116 37.1719 10.2959 37.1719 10.4844C37.1719 10.7372 37.0715 10.9796 36.8927 11.1583C36.714 11.3371 36.4715 11.4375 36.2188 11.4375ZM40.0313 11.4375C39.8427 11.4375 39.6585 11.3816 39.5017 11.2769C39.345 11.1721 39.2228 11.0233 39.1507 10.8491C39.0785 10.675 39.0597 10.4833 39.0964 10.2984C39.1332 10.1135 39.224 9.94371 39.3573 9.81041C39.4906 9.67712 39.6604 9.58634 39.8453 9.54956C40.0302 9.51279 40.2218 9.53166 40.396 9.6038C40.5702 9.67594 40.719 9.79811 40.8237 9.95485C40.9285 10.1116 40.9844 10.2959 40.9844 10.4844C40.9844 10.7372 40.884 10.9796 40.7052 11.1583C40.5265 11.3371 40.284 11.4375 40.0313 11.4375ZM43.8438 11.4375C43.6552 11.4375 43.471 11.3816 43.3142 11.2769C43.1575 11.1721 43.0353 11.0233 42.9632 10.8491C42.891 10.675 42.8722 10.4833 42.9089 10.2984C42.9457 10.1135 43.0365 9.94371 43.1698 9.81041C43.3031 9.67712 43.4729 9.58634 43.6578 9.54956C43.8427 9.51279 44.0343 9.53166 44.2085 9.6038C44.3827 9.67594 44.5315 9.79811 44.6362 9.95485C44.741 10.1116 44.7969 10.2959 44.7969 10.4844C44.7969 10.7372 44.6965 10.9796 44.5177 11.1583C44.339 11.3371 44.0965 11.4375 43.8438 11.4375Z" fill="#174689"/>
<path id="Vector_3" d="M35.9423 36.8382L31.7486 32.6445C32.2508 31.9106 32.4806 31.0242 32.3983 30.1388C32.316 29.2533 31.9268 28.4245 31.298 27.7957C30.6692 27.1669 29.8404 26.7776 28.9549 26.6954C28.0695 26.6131 27.1831 26.8429 26.4492 27.3451L22.4652 23.361C22.3766 23.2717 22.2711 23.2008 22.155 23.1524C22.0388 23.104 21.9143 23.0791 21.7884 23.0791C21.6626 23.0791 21.538 23.104 21.4219 23.1524C21.3057 23.2008 21.2003 23.2717 21.1117 23.361C19.2799 25.1931 18.1913 27.6385 18.0558 30.2257C17.9203 32.8128 18.7474 35.3586 20.3778 37.372L17.995 39.7548C17.4586 40.2905 17.1569 41.0173 17.1562 41.7754V53.3749H19.0625V41.7754C19.066 41.5231 19.1647 41.2813 19.3389 41.0987L21.7122 38.7349C23.7169 40.4525 26.2957 41.3506 28.9337 41.2499C31.5716 41.1492 34.0744 40.0571 35.9423 38.1917C36.0317 38.1031 36.1026 37.9976 36.151 37.8815C36.1994 37.7653 36.2243 37.6408 36.2243 37.5149C36.2243 37.3891 36.1994 37.2645 36.151 37.1484C36.1026 37.0322 36.0317 36.9268 35.9423 36.8382ZM28.527 39.3545C26.9138 39.3492 25.3348 38.8891 23.9713 38.027C22.6077 37.165 21.5149 35.9359 20.8182 34.4808C20.1216 33.0258 19.8493 31.4038 20.0327 29.8011C20.2161 28.1983 20.8478 26.6798 21.8552 25.4198L25.7344 29.3371C25.8406 29.4296 25.9651 29.4986 26.0997 29.5397C26.2344 29.5807 26.3762 29.5929 26.5159 29.5754C26.6611 29.562 26.8018 29.5177 26.9284 29.4453C27.055 29.373 27.1646 29.2743 27.2498 29.156C27.607 28.801 28.0901 28.6017 28.5938 28.6017C29.0974 28.6017 29.5805 28.801 29.9377 29.156C30.12 29.3378 30.2636 29.5547 30.3598 29.7935C30.4561 30.0323 30.5029 30.2881 30.4976 30.5455C30.4922 30.8029 30.4348 31.0566 30.3287 31.2912C30.2227 31.5258 30.0702 31.7365 29.8805 31.9106C29.7672 31.9904 29.6726 32.0941 29.6035 32.2143C29.5344 32.3344 29.4923 32.4682 29.4802 32.6063C29.4718 32.7441 29.4921 32.8822 29.5396 33.0117C29.5872 33.1413 29.6611 33.2597 29.7566 33.3593L33.8836 37.4768C32.3663 38.6985 30.4751 39.3615 28.527 39.3545Z" fill="#174689"/>
</g>
</g>
</svg>
