<svg width="21" height="21" viewBox="0 0 21 21" fill="none" xmlns="http://www.w3.org/2000/svg">
<g id="843786_whatsapp_icon">
<g id="Group">
<path id="Vector" fill-rule="evenodd" clip-rule="evenodd" d="M17.1799 3.96863C15.457 2.24378 13.1659 1.29348 10.7248 1.29248C5.69509 1.29248 1.60144 5.3858 1.59948 10.4171C1.59877 12.0254 2.01897 13.5952 2.81755 14.9791L1.52295 19.7077L6.3604 18.4387C7.69323 19.1657 9.1939 19.5489 10.7212 19.5494H10.7249C10.7246 19.5494 10.7252 19.5494 10.7249 19.5494C15.754 19.5494 19.848 15.4557 19.8501 10.4243C19.851 7.98605 18.9027 5.69339 17.1799 3.96863ZM10.7248 18.0083H10.7218C9.36084 18.0078 8.02597 17.6421 6.86146 16.9511L6.58454 16.7868L3.71392 17.5397L4.48017 14.741L4.29981 14.454C3.54061 13.2464 3.13963 11.8507 3.14022 10.4176C3.14185 6.23579 6.54435 2.83367 10.7279 2.83367C12.7537 2.8343 14.6581 3.62429 16.09 5.05791C17.522 6.49153 18.3102 8.39714 18.3094 10.4237C18.3077 14.6058 14.9053 18.0083 10.7248 18.0083Z" fill="#174689"/>
<path id="Vector_2" fill-rule="evenodd" clip-rule="evenodd" d="M14.8852 12.328C14.6572 12.2138 13.5362 11.6623 13.3272 11.5862C13.1182 11.5101 12.9662 11.472 12.8142 11.7003C12.6622 11.9285 12.2252 12.4421 12.0922 12.5943C11.9592 12.7464 11.8262 12.7656 11.5982 12.6513C11.3702 12.5372 10.6355 12.2965 9.76466 11.5197C9.0868 10.915 8.62923 10.1684 8.49617 9.9401C8.36319 9.71189 8.48202 9.58851 8.59618 9.47479C8.69875 9.37259 8.82421 9.2085 8.93823 9.07533C9.0522 8.94224 9.09021 8.84704 9.16622 8.69499C9.24223 8.54278 9.20426 8.40962 9.14722 8.29553C9.09021 8.18141 8.63423 7.05912 8.44424 6.60251C8.25911 6.15797 8.07116 6.2182 7.93118 6.21113C7.79838 6.2045 7.64618 6.20312 7.4942 6.20312C7.34221 6.20312 7.09515 6.26021 6.8862 6.48842C6.67721 6.71671 6.08813 7.26837 6.08813 8.39054C6.08813 9.51287 6.90516 10.5971 7.01917 10.7492C7.13315 10.9014 8.62697 13.2044 10.9142 14.192C11.4582 14.427 11.8829 14.5673 12.214 14.6723C12.7603 14.8459 13.2573 14.8214 13.6502 14.7627C14.0883 14.6972 14.9992 14.2111 15.1892 13.6786C15.3792 13.1459 15.3792 12.6893 15.3222 12.5943C15.2652 12.4992 15.1132 12.4421 14.8852 12.328Z" fill="#174689"/>
</g>
</g>
</svg>
