<svg width="56" height="55" viewBox="0 0 56 55" fill="none" xmlns="http://www.w3.org/2000/svg">
<g id="9165763_automation_robot_icon 1" clip-path="url(#clip0_231_80)">
<path id="Vector" d="M15.836 17.6941C19.3744 26.108 23.0477 34.8452 26.7755 43.7118C29.2565 44.2891 29.8026 44.849 30.1493 47.6015C30.3137 48.902 30.4048 50.2104 30.4219 51.5205C30.451 53.8979 29.4436 55 27.0528 54.9723C22.9443 54.9243 18.8376 54.7101 14.7292 54.6154C13.089 54.5778 11.4432 54.6295 9.80466 54.7213C8.58077 54.7899 7.88461 54.4748 7.78615 53.2933C7.56307 51.047 7.48484 48.7887 7.55187 46.5325C7.6383 44.6526 8.85559 43.7353 10.8634 43.6059C11.5003 43.5645 12.1419 43.5852 12.7812 43.5819C13.4154 43.579 14.0495 43.5819 14.9094 43.5819C14.4511 41.9509 14.077 40.4449 13.6041 38.9697C11.9085 33.6811 10.1793 28.4029 8.46225 23.1208C8.40742 22.949 8.32977 22.7829 8.2856 22.6086C7.97568 21.3838 7.96991 19.9444 7.2776 18.9939C6.64317 18.1229 5.2237 17.8472 4.2294 17.1914C-0.963456 13.7664 -1.2926 5.5476 3.58236 1.67799C6.6769 -0.77861 12.1838 -0.50992 15.5414 2.30061C16.2169 2.83899 16.8098 3.47159 17.3016 4.17855C17.4742 4.49247 17.7399 4.74642 18.0629 4.90617C18.3859 5.06595 18.7507 5.12385 19.108 5.07207C24.4792 4.69969 29.8558 4.39624 35.2223 3.96768C38.465 3.70875 38.4589 3.62569 39.6178 6.61154C41.2207 6.42863 42.8367 6.27285 44.4407 6.0359C44.7466 5.99057 45.0567 5.6662 45.2748 5.3986C46.1624 4.3091 47.0233 3.19737 47.8805 2.08293C48.9967 0.630031 49.9897 0.352102 51.6914 1.08629C52.579 1.44491 53.4441 1.85578 54.282 2.31665C55.2658 2.88798 55.5926 3.80104 55.2324 4.59655C54.8759 5.38367 53.9586 5.75523 52.8845 5.45881C52.3095 5.31242 51.7616 5.07691 51.261 4.76101C50.4774 4.23773 49.9445 4.42527 49.4134 5.1095C49.0373 5.56447 48.6331 5.99587 48.2035 6.40121C46.7902 7.81773 46.7128 9.13385 47.9122 10.7439C48.779 11.9072 49.6202 13.0885 50.436 14.2878C50.861 14.9121 51.337 15.0491 52.0633 14.8149C52.8348 14.5377 53.6435 14.377 54.4634 14.338C54.9022 14.334 55.6407 14.734 55.7117 15.0638C55.8074 15.5086 55.5374 16.2941 55.1655 16.5251C53.9582 17.2531 52.6961 17.8878 51.3897 18.4234C50.2927 18.8892 49.4021 18.342 48.7756 17.4829C47.654 15.9464 46.5382 14.3966 45.5665 12.7676C45.1248 12.028 44.6429 11.7576 43.8385 11.7544C42.9253 11.7723 42.0122 11.7179 41.1077 11.5915C40.1403 11.4322 39.693 11.863 39.3465 12.6606C38.6208 14.3331 38.5615 14.2783 36.6843 14.2919C34.129 14.3106 31.5734 14.5378 29.0198 14.509C26.0105 14.4748 23.0008 14.2995 19.9956 14.1019C19.1851 14.0476 18.659 14.129 18.1735 14.8654C17.5564 15.8029 16.7436 16.6152 15.836 17.6941ZM16.5267 10.2225C16.4364 5.88335 13.2242 2.81522 8.91593 2.95364C5.44535 3.0652 2.98303 5.77641 3.03158 9.43052C3.08233 13.2342 5.81483 15.9505 9.64719 15.8227C13.9174 15.6807 16.8835 12.5545 16.5267 10.2225ZM10.204 18.9111C10.2036 19.1102 10.2245 19.3087 10.2663 19.5034C10.9772 21.5013 11.7225 23.4872 12.4134 25.4917C14.396 31.2436 16.3478 37.0057 18.3493 42.7507C18.4865 43.1407 18.9042 43.6708 19.2424 43.7105C20.3045 43.835 21.3912 43.756 22.5954 43.756L13.0602 18.3862L10.204 18.9111ZM19.709 11.9577L36.8351 11.4816C36.7125 10.8907 36.6187 10.4622 36.5353 10.0317C36.441 9.54477 36.3497 9.05705 36.2679 8.56792C36.0265 7.12262 36.0287 7.12155 34.5399 7.12668C30.0251 7.1428 25.5103 7.15902 20.9957 7.17531C20.4244 7.17746 19.8527 7.17531 19.2712 7.17531C19.4133 8.73189 19.5441 10.1587 19.709 11.9577ZM10.7446 51.2885H26.451V47.0027H11.0036C10.9117 48.5166 10.8286 49.8949 10.7446 51.2885Z" fill="white"/>
<path id="Vector_2" d="M9.26492 12.4401C7.74727 12.4192 6.43834 11.6259 6.09933 10.5179C5.69776 9.20725 6.25182 7.74731 7.4982 6.83456C9.74246 5.18948 12.0607 5.77463 12.7981 8.17234C13.4857 10.4129 11.7796 12.4749 9.26492 12.4401Z" fill="white"/>
</g>
<defs>
<clipPath id="clip0_231_80">
<rect width="56" height="55" fill="white"/>
</clipPath>
</defs>
</svg>
