<svg width="21" height="21" viewBox="0 0 21 21" fill="none" xmlns="http://www.w3.org/2000/svg">
<g id="9025961_telegram_logo_icon" clip-path="url(#clip0_880_59)">
<path id="Vector" d="M7.21853 11.0661L14.5931 17.5548C14.6784 17.6302 14.7818 17.6822 14.8931 17.7056C15.0045 17.729 15.1201 17.7231 15.2285 17.6883C15.3369 17.6536 15.4344 17.5912 15.5114 17.5074C15.5884 17.4236 15.6423 17.3212 15.6677 17.2102L18.7521 3.74071C18.778 3.62471 18.7719 3.50386 18.7344 3.39107C18.697 3.27828 18.6296 3.17778 18.5394 3.1003C18.4493 3.02281 18.3399 2.97125 18.2227 2.95113C18.1056 2.931 17.9852 2.94306 17.8744 2.98602L2.73142 8.93329C2.12439 9.17118 2.20642 10.0571 2.84627 10.1884L7.21853 11.0661Z" stroke="#174689" stroke-width="2" stroke-linecap="round" stroke-linejoin="round"/>
<path id="Vector_2" d="M7.21875 11.0661L18.3832 3.00244" stroke="#174689" stroke-width="2" stroke-linecap="round" stroke-linejoin="round"/>
<path id="Vector_3" d="M10.902 14.3062L8.34258 16.8655C8.25127 16.9582 8.13446 17.0217 8.00699 17.0479C7.87952 17.0741 7.74715 17.0618 7.62669 17.0125C7.50624 16.9633 7.40314 16.8793 7.3305 16.7714C7.25787 16.6634 7.21897 16.5363 7.21875 16.4062V11.0659" stroke="#174689" stroke-width="2" stroke-linecap="round" stroke-linejoin="round"/>
</g>
<defs>
<clipPath id="clip0_880_59">
<rect width="21" height="21" fill="white"/>
</clipPath>
</defs>
</svg>
