<svg width="57" height="57" viewBox="0 0 57 57" fill="none" xmlns="http://www.w3.org/2000/svg">
<g id="290121_computer_desktop_monitor_computer screen_icon">
<path id="Vector" fill-rule="evenodd" clip-rule="evenodd" d="M51.0625 41.5625H34.6691C35.3756 45.4824 37.7245 48.1792 39.8953 49.875H42.75C43.4067 49.875 43.9375 50.4058 43.9375 51.0625C43.9375 51.7192 43.4067 52.25 42.75 52.25H14.25C13.5933 52.25 13.0625 51.7192 13.0625 51.0625C13.0625 50.4058 13.5933 49.875 14.25 49.875H17.1036C19.2731 48.1792 21.6244 45.4824 22.3298 41.5625H5.9375C3.31431 41.5625 1.1875 39.4357 1.1875 36.8125V9.5C1.1875 6.87681 3.31431 4.75 5.9375 4.75H51.0625C53.6857 4.75 55.8125 6.87681 55.8125 9.5V36.8125C55.8125 39.4357 53.6857 41.5625 51.0625 41.5625ZM20.6589 49.875H36.3399C34.4458 47.8776 32.7596 45.1535 32.2323 41.5625H24.7665C24.2393 45.1535 22.553 47.8776 20.6589 49.875ZM53.4375 9.5C53.4375 8.189 52.3735 7.125 51.0625 7.125H5.9375C4.6265 7.125 3.5625 8.189 3.5625 9.5V32.0625H53.4375V9.5ZM53.4375 34.4375H3.5625V36.8125C3.5625 38.1235 4.6265 39.1875 5.9375 39.1875H22.5625H34.4375H51.0625C52.3735 39.1875 53.4375 38.1235 53.4375 36.8125V34.4375ZM28.5 38C27.8433 38 27.3125 37.4692 27.3125 36.8125C27.3125 36.1558 27.8433 35.625 28.5 35.625C29.1567 35.625 29.6875 36.1558 29.6875 36.8125C29.6875 37.4692 29.1567 38 28.5 38Z" fill="#174689"/>
</g>
</svg>
