<svg width="57" height="57" viewBox="0 0 57 57" fill="none" xmlns="http://www.w3.org/2000/svg">
<g id="5120885_dairy_factory_industry_manufacture_processing_icon" clip-path="url(#clip0_231_473)">
<path id="Vector" d="M56.3074 41.9846C56.69 41.9846 57 41.6745 57 41.292V37.829C57 37.4465 56.69 37.1363 56.3074 37.1363H51.0233V11.8868C51.0233 8.40501 48.1908 5.57251 44.709 5.57251H41.0457C38.597 5.57251 36.471 6.97449 35.424 9.01714C34.3771 6.97449 32.251 5.57251 29.8024 5.57251H26.1389C22.6571 5.57251 19.8246 8.40501 19.8246 11.8868V20.7199L8.60958 18.9117L7.11839 7.19114C7.07434 6.84511 6.78011 6.58594 6.43131 6.58594H0.692612C0.310151 6.58594 0 6.89609 0 7.27855V18.3368V50.7351C0 51.1175 0.310151 51.4277 0.692612 51.4277H10.9636H25.1529H35.4239H39.2917H42.6639H48.9217H50.3307H52.2938C52.6764 51.4277 52.9865 51.1175 52.9865 50.7351V48.5394H56.3075C56.6901 48.5394 57.0001 48.2292 57.0001 47.8468V44.3837C57.0001 44.0012 56.6901 43.6911 56.3075 43.6911H52.9865V41.9848H56.3074V41.9846ZM55.6148 40.5994H52.9863V38.5216H55.6148V40.5994ZM34.7314 17.2596H21.2098V16.0003H34.7314V17.2596ZM36.1166 16.0003H49.6381V17.2596H36.1166V16.0003ZM38.5991 43.691H36.1165V41.9846H38.5991V43.691ZM36.1166 45.0762H38.5992V47.154H36.1166V45.0762ZM38.5991 40.5994H36.1165V38.5216H38.5991V40.5994ZM48.229 47.154H43.3565V45.0762H48.229V47.154ZM48.229 43.691H43.3565V41.9846H48.229V43.691ZM43.3565 48.5392H48.229V50.0423H43.3565V48.5392ZM48.229 40.5994H43.3565V38.5216H48.229V40.5994ZM36.1166 37.1363V23.9366V18.6449H49.6381V37.1363H36.1166ZM41.0457 6.95773H44.709C47.4269 6.95773 49.6381 9.16883 49.6381 11.8868V14.6151H36.1166V11.8868C36.1166 9.16883 38.3277 6.95773 41.0457 6.95773ZM26.1389 6.95773H29.8024C32.5202 6.95773 34.7314 9.16883 34.7314 11.8868V14.6151H21.2098V11.8868C21.2098 9.16883 23.4209 6.95773 26.1389 6.95773ZM21.2098 18.6449H34.7314V23.1233L21.2098 20.9432V18.6449ZM5.82126 7.97116L7.18404 18.6818L1.38522 17.7468V7.97116H5.82126ZM1.38522 19.1499L34.7314 24.5264V37.6575C34.7173 37.7126 34.7075 37.7694 34.7075 37.8288V41.2919C34.7075 41.3514 34.7173 41.4081 34.7314 41.4632V44.2121C34.7173 44.2672 34.7075 44.324 34.7075 44.3834V47.8465C34.7075 47.906 34.7173 47.9627 34.7314 48.0178V50.0422H25.8455V38.032C25.8455 37.6496 25.5353 37.3394 25.1529 37.3394H10.9636C10.5812 37.3394 10.271 37.6496 10.271 38.032V50.0422H1.38522V19.1499ZM11.6562 38.7248H17.3657V50.0423H11.6562V38.7248ZM18.7509 50.0423V38.7248H24.4603V50.0423H18.7509ZM36.1166 48.5392H38.5992V50.0423H36.1166V48.5392ZM39.9843 50.0423V38.7248H41.9713V50.0423H39.9843ZM51.6012 50.0423H50.3307H49.6143V38.7248H51.6012V50.0423ZM55.6148 45.0762V47.154H52.9863V45.0762H55.6148Z" fill="#174689"/>
</g>
<defs>
<clipPath id="clip0_231_473">
<rect width="57" height="57" fill="white"/>
</clipPath>
</defs>
</svg>
