<svg width="54" height="46" viewBox="0 0 54 46" fill="none" xmlns="http://www.w3.org/2000/svg">
<g id="g2737">
<path id="path2696" d="M12.2214 26.4503C16.9651 24.7222 21.964 23.8389 27.0004 23.8389C32.0365 23.8389 37.0353 24.7221 41.7787 26.45" stroke="black" stroke-width="2" stroke-linecap="round" stroke-linejoin="round"/>
<path id="circle2698" d="M6.78122 16.8357C13.2159 14.2221 20.0777 12.8796 27.0025 12.8796C33.9255 12.8796 40.7856 14.2214 47.2189 16.8337" stroke="black" stroke-width="2" stroke-linecap="round" stroke-linejoin="round"/>
<path id="circle2700" d="M1.36804 7.2582C9.47229 3.73575 18.1892 1.92017 26.9967 1.92017C35.8066 1.92017 44.5259 3.73675 52.632 7.26106" stroke="black" stroke-width="2" stroke-linecap="round" stroke-linejoin="round"/>
<path id="path2723" d="M27.0001 44.0799C30.0211 44.0799 32.4701 41.6301 32.4701 38.6081C32.4701 35.5861 30.0211 33.1362 27.0001 33.1362C23.979 33.1362 21.53 35.5861 21.53 38.6081C21.53 41.6301 23.979 44.0799 27.0001 44.0799Z" stroke="black" stroke-width="2" stroke-linecap="round" stroke-linejoin="round"/>
</g>
</svg>
