<svg width="54" height="46" viewBox="0 0 54 46" fill="none" xmlns="http://www.w3.org/2000/svg">
<g id="g2737">
<path id="path2696" d="M12.2212 26.4503C16.9649 24.7222 21.9639 23.8389 27.0002 23.8389C32.0364 23.8389 37.0351 24.7221 41.7785 26.45" stroke="#174689" stroke-width="2" stroke-linecap="round" stroke-linejoin="round"/>
<path id="circle2698" d="M6.78101 16.8357C13.2157 14.2221 20.0775 12.8796 27.0023 12.8796C33.9253 12.8796 40.7854 14.2214 47.2187 16.8337" stroke="#174689" stroke-width="2" stroke-linecap="round" stroke-linejoin="round"/>
<path id="circle2700" d="M1.36792 7.2582C9.47217 3.73575 18.1891 1.92017 26.9966 1.92017C35.8065 1.92017 44.5258 3.73675 52.6318 7.26106" stroke="#174689" stroke-width="2" stroke-linecap="round" stroke-linejoin="round"/>
<path id="path2723" d="M26.9998 44.0799C30.0209 44.0799 32.4699 41.6301 32.4699 38.6081C32.4699 35.5861 30.0209 33.1362 26.9998 33.1362C23.9788 33.1362 21.5298 35.5861 21.5298 38.6081C21.5298 41.6301 23.9788 44.0799 26.9998 44.0799Z" stroke="#174689" stroke-width="2" stroke-linecap="round" stroke-linejoin="round"/>
</g>
</svg>
