<svg width="64" height="64" viewBox="0 0 64 64" fill="none" xmlns="http://www.w3.org/2000/svg">
<g id="605504_earth_globe_internet_map_network_icon">
<path id="Vector" d="M54.5 32.5H10.5" stroke="#174689" stroke-width="2" stroke-miterlimit="10" stroke-linecap="round" stroke-linejoin="round"/>
<path id="Vector_2" d="M32.5 10.5V54.5" stroke="#174689" stroke-width="2" stroke-miterlimit="10" stroke-linecap="round" stroke-linejoin="round"/>
<path id="Vector_3" d="M32.5 54.5C44.6503 54.5 54.5 44.6503 54.5 32.5C54.5 20.3497 44.6503 10.5 32.5 10.5C20.3497 10.5 10.5 20.3497 10.5 32.5C10.5 44.6503 20.3497 54.5 32.5 54.5Z" stroke="#174689" stroke-width="2" stroke-miterlimit="10" stroke-linecap="round" stroke-linejoin="round"/>
<path id="Vector_4" d="M32.5 54.5C28.0208 54.5 20 44.6503 20 32.5C20 20.3497 27.9375 10.5 32.5 10.5" stroke="#174689" stroke-width="2" stroke-miterlimit="10" stroke-linecap="round" stroke-linejoin="round"/>
<path id="Vector_5" d="M32.5 54.5C36.9792 54.5 45 44.6503 45 32.5C45 20.3497 37.0625 10.5 32.5 10.5" stroke="#174689" stroke-width="2" stroke-miterlimit="10" stroke-linecap="round" stroke-linejoin="round"/>
<path id="Vector_6" d="M32.5 10.5C44.6503 10.5 54.5 20.3497 54.5 32.5C54.5 44.6503 44.6503 54.5 32.5 54.5" stroke="#174689" stroke-width="2" stroke-miterlimit="10" stroke-linecap="round" stroke-linejoin="round"/>
</g>
</svg>
