<svg width="21" height="21" viewBox="0 0 21 21" fill="none" xmlns="http://www.w3.org/2000/svg">
<g id="843786_whatsapp_icon">
<g id="Group">
<path id="Vector" fill-rule="evenodd" clip-rule="evenodd" d="M17.1799 3.96863C15.457 2.24378 13.1659 1.29348 10.7248 1.29248C5.69509 1.29248 1.60144 5.3858 1.59948 10.4171C1.59877 12.0254 2.01897 13.5952 2.81755 14.9791L1.52295 19.7077L6.3604 18.4387C7.69323 19.1657 9.1939 19.5489 10.7212 19.5494H10.7249C10.7246 19.5494 10.7252 19.5494 10.7249 19.5494C15.754 19.5494 19.848 15.4557 19.8501 10.4243C19.851 7.98605 18.9027 5.69339 17.1799 3.96863ZM10.7248 18.0083H10.7218C9.36084 18.0078 8.02597 17.6421 6.86146 16.9511L6.58454 16.7868L3.71392 17.5397L4.48017 14.741L4.29981 14.454C3.54061 13.2464 3.13963 11.8507 3.14022 10.4176C3.14185 6.23579 6.54435 2.83367 10.7279 2.83367C12.7537 2.8343 14.6581 3.62429 16.09 5.05791C17.522 6.49153 18.3102 8.39714 18.3094 10.4237C18.3077 14.6058 14.9053 18.0083 10.7248 18.0083Z" fill="#174689"/>
<path id="Vector_2" fill-rule="evenodd" clip-rule="evenodd" d="M14.8849 12.328C14.6569 12.2138 13.5359 11.6623 13.3269 11.5862C13.1179 11.5101 12.9659 11.472 12.8139 11.7003C12.662 11.9285 12.225 12.4421 12.092 12.5943C11.959 12.7464 11.8259 12.7656 11.598 12.6513C11.37 12.5372 10.6353 12.2965 9.76442 11.5197C9.08656 10.915 8.62898 10.1684 8.49593 9.9401C8.36295 9.71189 8.48178 9.58851 8.59594 9.47479C8.69851 9.37259 8.82397 9.2085 8.93798 9.07533C9.05196 8.94224 9.08996 8.84704 9.16597 8.69499C9.24198 8.54278 9.20402 8.40962 9.14697 8.29553C9.08996 8.18141 8.63398 7.05912 8.444 6.60251C8.25886 6.15797 8.07091 6.2182 7.93093 6.21113C7.79814 6.2045 7.64593 6.20312 7.49395 6.20312C7.34197 6.20312 7.0949 6.26021 6.88595 6.48842C6.67696 6.71671 6.08789 7.26837 6.08789 8.39054C6.08789 9.51287 6.90492 10.5971 7.01893 10.7492C7.13291 10.9014 8.62672 13.2044 10.914 14.192C11.458 14.427 11.8827 14.5673 12.2138 14.6723C12.76 14.8459 13.2571 14.8214 13.6499 14.7627C14.088 14.6972 14.999 14.2111 15.1889 13.6786C15.379 13.1459 15.379 12.6893 15.3219 12.5943C15.2649 12.4992 15.1129 12.4421 14.8849 12.328Z" fill="#174689"/>
</g>
</g>
</svg>
