<svg width="55" height="55" viewBox="0 0 55 55" fill="none" xmlns="http://www.w3.org/2000/svg">
<g id="3709727_problem_process_solution_solve_trouble_icon 1" clip-path="url(#clip0_231_83)">
<g id="Group">
<path id="Vector" d="M54.1406 41.0575V34.5667L50.936 33.746C50.6851 32.9339 50.3611 32.1493 49.9692 31.4042L51.6536 28.5605L47.0645 23.9706L44.22 25.6558C43.4758 25.2631 42.6912 24.9391 41.8791 24.6882L41.0575 21.4844H34.5666L33.7459 24.689C32.9338 24.94 32.1492 25.2639 31.405 25.6567L28.5605 23.9714L28.3594 24.1743V21.4844H25.7812C25.0568 21.4844 24.3607 21.1768 23.8726 20.6396C23.3776 20.0957 23.1447 19.3901 23.2152 18.6511C23.3398 17.3491 24.5317 16.3282 25.9291 16.3282H28.3594V8.59379C28.3594 7.17238 27.2027 6.01566 25.7812 6.01566H18.9062V5.3041C18.9062 3.0302 17.203 1.08715 15.0288 0.880039C13.8188 0.761446 12.613 1.16363 11.7193 1.9766C10.8255 2.78871 10.3125 3.94887 10.3125 5.15629V6.01566H3.4375C2.01609 6.01566 0.859375 7.17238 0.859375 8.59379V16.3282H3.28969C4.68703 16.3282 5.87898 17.3491 6.00359 18.6502C6.07406 19.3893 5.84117 20.0957 5.34617 20.6388C4.85805 21.1768 4.16195 21.4844 3.4375 21.4844H0.859375V29.2188C0.859375 30.6402 2.01609 31.7969 3.4375 31.7969H12.0312V29.3666C12.0312 27.9693 13.0513 26.7764 14.3533 26.6527C15.0941 26.59 15.7996 26.816 16.3427 27.311C16.8798 27.7982 17.1875 28.4935 17.1875 29.2188V31.7969H25.4727C25.1668 32.4251 24.897 33.0731 24.689 33.7468L21.4844 34.5675V41.0584L24.689 41.8791C24.9399 42.6912 25.2639 43.4758 25.6558 44.2209L23.9714 47.0646L28.5605 51.6545L31.405 49.9693C32.1492 50.362 32.9338 50.686 33.7459 50.9369L34.5675 54.1407H41.0584L41.8791 50.9361C42.6912 50.6851 43.4758 50.3611 44.22 49.9684L47.0645 51.6536L51.6536 47.0637L49.9692 44.22C50.362 43.4758 50.6851 42.6912 50.936 41.8782L54.1406 41.0575ZM17.4995 26.0391C16.6057 25.2261 15.3974 24.8214 14.19 24.9425C12.0158 25.1496 10.3125 27.0927 10.3125 29.3666V30.0782H3.4375C2.96398 30.0782 2.57812 29.6932 2.57812 29.2188V23.2032H3.4375C4.64578 23.2032 5.80422 22.6901 6.61805 21.7955C7.43016 20.9018 7.83063 19.6961 7.71461 18.4869C7.50664 16.3127 5.56359 14.6094 3.28969 14.6094H2.57812V8.59379C2.57812 8.11941 2.96398 7.73441 3.4375 7.73441H12.0312V5.15629C12.0312 4.43098 12.3389 3.73574 12.876 3.24762C13.42 2.75348 14.1238 2.52402 14.8655 2.58934C16.1674 2.71395 17.1875 3.90676 17.1875 5.3041V7.73441H25.7812C26.2548 7.73441 26.6406 8.11941 26.6406 8.59379V14.6094H25.9291C23.6552 14.6094 21.7121 16.3127 21.5041 18.4878C21.389 19.6961 21.7886 20.9026 22.6007 21.7964C23.4145 22.6901 24.573 23.2032 25.7812 23.2032H26.6406V25.893L23.9723 28.5614L24.8703 30.0782H18.9062V29.2188C18.9062 28.0114 18.3932 26.8512 17.4995 26.0391ZM49.5473 40.4594L49.4166 40.9441C49.1451 41.953 48.7472 42.9155 48.2341 43.805L47.9832 44.2407L49.494 46.7913L46.7913 49.4949L44.2406 47.9832L43.8058 48.2342C42.9155 48.7472 41.9521 49.1451 40.9432 49.4167L40.4585 49.5473L39.7237 52.4219H35.9021L35.1665 49.5473L34.6818 49.4167C33.6729 49.1451 32.7104 48.7472 31.8192 48.2342L31.3844 47.9832L28.8337 49.4949L26.131 46.7913L27.6418 44.2407L27.3909 43.805C26.8778 42.9155 26.4799 41.953 26.2084 40.9441L26.0777 40.4594L23.2031 39.7238V35.9021L26.0777 35.1665L26.2084 34.6818C26.4799 33.6729 26.8778 32.7104 27.3909 31.821L27.6418 31.3853L26.131 28.8347L28.8337 26.1311L31.3844 27.6427L31.8192 27.3918C32.7095 26.8787 33.6729 26.4808 34.6818 26.2093L35.1665 26.0786L35.9013 23.2032H39.7229L40.4585 26.0778L40.9432 26.2084C41.9521 26.48 42.9146 26.8778 43.8058 27.3909L44.2406 27.6418L46.7913 26.1302L49.494 28.8338L47.9832 31.3844L48.2341 31.8201C48.7472 32.7096 49.1451 33.6721 49.4166 34.681L49.5473 35.1657L52.4219 35.9013V39.7229L49.5473 40.4594Z" fill="#174689"/>
<path id="Vector_2" d="M37.8125 30.9375C34.0218 30.9375 30.9375 34.0218 30.9375 37.8125C30.9375 41.6032 34.0218 44.6875 37.8125 44.6875C39.3078 44.6875 40.7344 44.2088 41.9375 43.3039L40.9045 41.9306C40.0013 42.6095 38.9323 42.9688 37.8125 42.9688C34.9688 42.9688 32.6562 40.6562 32.6562 37.8125C32.6562 34.9688 34.9688 32.6562 37.8125 32.6562C40.6562 32.6562 42.9688 34.9688 42.9688 37.8125C42.9688 38.9323 42.6104 40.0013 41.9306 40.9054L43.3048 41.9375C44.2088 40.7335 44.6875 39.3078 44.6875 37.8125C44.6875 34.0218 41.6032 30.9375 37.8125 30.9375Z" fill="#174689"/>
<path id="Vector_3" d="M37.8125 27.5C32.126 27.5 27.5 32.126 27.5 37.8125C27.5 43.499 32.126 48.125 37.8125 48.125C43.499 48.125 48.125 43.499 48.125 37.8125C48.125 32.126 43.499 27.5 37.8125 27.5ZM37.8125 46.4062C33.0739 46.4062 29.2188 42.5511 29.2188 37.8125C29.2188 33.0739 33.0739 29.2188 37.8125 29.2188C42.5511 29.2188 46.4062 33.0739 46.4062 37.8125C46.4062 42.5511 42.5511 46.4062 37.8125 46.4062Z" fill="#174689"/>
<path id="Vector_4" d="M46.4062 6.01562H44.6875V7.73438H46.4062V6.01562Z" fill="#174689"/>
<path id="Vector_5" d="M46.4062 9.45312H44.6875V11.1719H46.4062V9.45312Z" fill="#174689"/>
<path id="Vector_6" d="M48.125 7.73438H46.4062V9.45312H48.125V7.73438Z" fill="#174689"/>
<path id="Vector_7" d="M44.6875 7.73438H42.9688V9.45312H44.6875V7.73438Z" fill="#174689"/>
<path id="Vector_8" d="M37.8125 12.8906H36.0938V14.6094H37.8125V12.8906Z" fill="#174689"/>
<path id="Vector_9" d="M37.8125 16.3281H36.0938V18.0469H37.8125V16.3281Z" fill="#174689"/>
<path id="Vector_10" d="M39.5312 14.6094H37.8125V16.3281H39.5312V14.6094Z" fill="#174689"/>
<path id="Vector_11" d="M36.0938 14.6094H34.375V16.3281H36.0938V14.6094Z" fill="#174689"/>
<path id="Vector_12" d="M49.8438 16.3281H48.125V18.0469H49.8438V16.3281Z" fill="#174689"/>
<path id="Vector_13" d="M49.8438 19.7656H48.125V21.4844H49.8438V19.7656Z" fill="#174689"/>
<path id="Vector_14" d="M51.5625 18.0469H49.8438V19.7656H51.5625V18.0469Z" fill="#174689"/>
<path id="Vector_15" d="M48.125 18.0469H46.4062V19.7656H48.125V18.0469Z" fill="#174689"/>
<path id="Vector_16" d="M33.5156 2.57812H31.7969V4.29688H33.5156V2.57812Z" fill="#174689"/>
<path id="Vector_17" d="M33.5156 6.01562H31.7969V7.73438H33.5156V6.01562Z" fill="#174689"/>
<path id="Vector_18" d="M35.2344 4.29688H33.5156V6.01562H35.2344V4.29688Z" fill="#174689"/>
<path id="Vector_19" d="M31.7969 4.29688H30.0781V6.01562H31.7969V4.29688Z" fill="#174689"/>
<path id="Vector_20" d="M17.1875 40.3906H15.4688V42.1094H17.1875V40.3906Z" fill="#174689"/>
<path id="Vector_21" d="M17.1875 43.8281H15.4688V45.5469H17.1875V43.8281Z" fill="#174689"/>
<path id="Vector_22" d="M18.9062 42.1094H17.1875V43.8281H18.9062V42.1094Z" fill="#174689"/>
<path id="Vector_23" d="M15.4688 42.1094H13.75V43.8281H15.4688V42.1094Z" fill="#174689"/>
<path id="Vector_24" d="M8.59375 35.2344H6.875V36.9531H8.59375V35.2344Z" fill="#174689"/>
<path id="Vector_25" d="M8.59375 38.6719H6.875V40.3906H8.59375V38.6719Z" fill="#174689"/>
<path id="Vector_26" d="M10.3125 36.9531H8.59375V38.6719H10.3125V36.9531Z" fill="#174689"/>
<path id="Vector_27" d="M6.875 36.9531H5.15625V38.6719H6.875V36.9531Z" fill="#174689"/>
</g>
</g>
<defs>
<clipPath id="clip0_231_83">
<rect width="55" height="55" fill="white"/>
</clipPath>
</defs>
</svg>
