<svg width="46" height="45" viewBox="0 0 46 45" fill="none" xmlns="http://www.w3.org/2000/svg">
<path d="M13.0081 14.477C15.9146 21.3611 18.9319 28.5097 21.9941 35.7642C24.032 36.2365 24.4806 36.6946 24.7654 38.9467C24.9005 40.0107 24.9753 41.0813 24.9894 42.1532C25.0133 44.0983 24.1857 45 22.2219 44.9773C18.847 44.9381 15.4737 44.7628 12.0989 44.6853C10.7516 44.6545 9.39973 44.6968 8.05375 44.772C7.04841 44.8281 6.47657 44.5703 6.39569 43.6036C6.21245 41.7658 6.14818 39.918 6.20325 38.072C6.27424 36.5339 7.27415 35.7835 8.92343 35.6776C9.44659 35.6437 9.9736 35.6606 10.4988 35.6579C11.0197 35.6556 11.5406 35.6579 12.247 35.6579C11.8705 34.3235 11.5632 33.0913 11.1747 31.8843C9.78188 27.5573 8.36151 23.2387 6.95106 18.9171C6.90602 18.7765 6.84224 18.6406 6.80595 18.498C6.55137 17.4958 6.54663 16.3181 5.97795 15.5405C5.45681 14.8278 4.29081 14.6022 3.47407 14.0657C-0.791489 11.2634 -1.06186 4.53894 2.94258 1.3729C5.48451 -0.637044 10.0081 -0.417208 12.7661 1.88232C13.3209 2.32281 13.808 2.84039 14.2119 3.41882C14.3537 3.67565 14.572 3.88343 14.8373 4.01413C15.1026 4.14487 15.4023 4.19224 15.6958 4.14988C20.1078 3.8452 24.5244 3.59692 28.9325 3.24629C31.5961 3.03443 31.5912 2.96647 32.5431 5.40944C33.8598 5.25979 35.1872 5.13233 36.5048 4.93846C36.756 4.90138 37.0108 4.63598 37.1899 4.41704C37.9191 3.52563 38.6262 2.61603 39.3303 1.70422C40.2472 0.51548 41.0629 0.288083 42.4607 0.88878C43.1899 1.1822 43.9005 1.51836 44.5887 1.89544C45.3968 2.36289 45.6653 3.10994 45.3694 3.76082C45.0765 4.40482 44.323 4.70883 43.4408 4.4663C42.9684 4.34653 42.5184 4.15384 42.1071 3.89538C41.4635 3.46723 41.0258 3.62067 40.5895 4.1805C40.2805 4.55275 39.9486 4.90571 39.5957 5.23736C38.4347 6.39633 38.3712 7.47315 39.3564 8.79046C40.0684 9.74223 40.7594 10.7087 41.4295 11.69C41.7786 12.2008 42.1696 12.3129 42.7662 12.1213C43.3999 11.8945 44.0642 11.763 44.7377 11.7311C45.0982 11.7278 45.7048 12.0551 45.7631 12.3249C45.8417 12.6889 45.62 13.3316 45.3144 13.5205C44.3227 14.1162 43.286 14.6355 42.2129 15.0737C41.3118 15.4548 40.5802 15.0071 40.0656 14.3042C39.1443 13.0471 38.2277 11.7791 37.4296 10.4462C37.0667 9.84106 36.6709 9.61988 36.0101 9.61721C35.26 9.63189 34.5099 9.58737 33.767 9.48397C32.9723 9.35364 32.6049 9.70606 32.3203 10.3587C31.7241 11.7271 31.6754 11.6822 30.1334 11.6933C28.0344 11.7087 25.9352 11.8945 23.8376 11.871C21.3657 11.843 18.8934 11.6996 16.4249 11.5379C15.7591 11.4935 15.327 11.5601 14.9282 12.1626C14.4212 12.9296 13.7536 13.5943 13.0081 14.477ZM13.5754 8.36384C13.5013 4.81365 10.8627 2.30336 7.32372 2.41662C4.47289 2.50789 2.45027 4.72615 2.49015 7.71588C2.53183 10.8279 4.77639 13.0504 7.9244 12.9458C11.432 12.8297 13.8685 10.2719 13.5754 8.36384ZM8.38179 15.4728C8.38145 15.6356 8.39858 15.798 8.43294 15.9573C9.01694 17.592 9.62911 19.2168 10.1967 20.8568C11.8252 25.5629 13.4285 30.2774 15.0726 34.9779C15.1852 35.2969 15.5284 35.7307 15.8062 35.7632C16.6786 35.865 17.5713 35.8004 18.5604 35.8004L10.7279 15.0433L8.38179 15.4728ZM16.1894 9.78354L30.2574 9.39404C30.1566 8.91061 30.0796 8.55995 30.0111 8.20773C29.9336 7.80936 29.8586 7.41032 29.7914 7.01012C29.5931 5.8276 29.5949 5.82672 28.372 5.83092C24.6634 5.84411 20.9548 5.85738 17.2464 5.87071C16.7771 5.87247 16.3075 5.87071 15.8298 5.87071C15.9466 7.14427 16.054 8.31167 16.1894 9.78354ZM8.82586 41.9633H21.7276V38.4567H9.03856C8.96308 39.6954 8.89483 40.8231 8.82586 41.9633Z" fill="black"/>
</svg>
