<svg xmlns="http://www.w3.org/2000/svg" viewBox="0 0 8.74657 5"><defs><style>.cls-1{fill:#888;}</style></defs><title>Icons - All.outline.3</title><g id="_Group_"><path id="_Path_" class="cls-1" d="M2.343 4.385a.614.614 0 1 1-.615-.614.615.615 0 0 1 .615.615"/><path id="_Path_2" class="cls-1" d="M7.58 4.385a.614.614 0 1 1-.616-.614.615.615 0 0 1 .615.615"/><path id="_Compound_Path_" class="cls-1" d="M8.543 2.12l-.827-.814a.63.63 0 0 0-.486-.243H6.034a.266.266 0 0 0-.265.266v2.657a.266.266 0 0 0 .263.265.94.94 0 0 1 1.864 0h.584a.266.266 0 0 0 .267-.265v-1.33a1.132 1.132 0 0 0-.204-.536M6.35 2.66V1.595h.866a.208.208 0 0 1 .102.062l.715.774a.486.486 0 0 1 .103.228H6.35z"/><path id="_Path_3" class="cls-1" d="M5.237 0H.267A.266.266 0 0 0 0 .265v3.722a.266.266 0 0 0 .266.265h.53a.94.94 0 0 1 1.864 0h2.577a.267.267 0 0 0 .266-.265V.265A.266.266 0 0 0 5.237 0"/></g></svg>