<?xml version="1.0" standalone="no"?>
<!DOCTYPE svg PUBLIC "-//W3C//DTD SVG 20010904//EN"
 "http://www.w3.org/TR/2001/REC-SVG-20010904/DTD/svg10.dtd">
<svg version="1.0" xmlns="http://www.w3.org/2000/svg"
 width="530.000000pt" height="470.000000pt" viewBox="0 0 530.000000 470.000000"
 preserveAspectRatio="xMidYMid meet">

<g transform="translate(0.000000,470.000000) scale(0.100000,-0.100000)"
fill="#d1e8e2" stroke="none">
<path d="M283 4540 c-92 -19 -153 -68 -183 -147 -20 -53 -20 -78 -20 -1556 l0
-1503 25 -51 c14 -27 41 -64 59 -81 71 -64 35 -62 1017 -62 l889 0 -2 -287 -3
-288 -377 -5 -376 -5 -43 -30 c-57 -40 -101 -112 -106 -173 -6 -61 24 -132 78
-183 33 -31 51 -39 107 -49 48 -7 435 -10 1342 -8 l1275 3 48 24 c55 27 101
84 118 145 25 90 -26 202 -115 249 -40 21 -53 22 -411 27 l-370 5 0 285 0 285
905 5 c825 5 908 7 941 22 44 21 96 78 121 134 18 41 18 97 16 1562 l-3 1519
-36 54 c-25 38 -52 63 -90 84 l-54 30 -2355 1 c-1295 1 -2374 -2 -2397 -6z
m4577 -1694 c0 -1057 -3 -1336 -12 -1343 -17 -10 -4389 -10 -4405 0 -10 7 -13
283 -13 1327 0 725 3 1325 6 1334 6 15 210 16 2215 16 l2209 0 0 -1334z"/>
<path d="M3044 3593 c-40 -8 -99 -70 -184 -192 -47 -67 -110 -157 -140 -200
-30 -42 -70 -100 -89 -127 -19 -27 -38 -50 -43 -52 -4 -2 -8 -10 -8 -18 0 -8
-4 -14 -10 -14 -5 0 -10 -5 -10 -11 0 -11 -50 -82 -62 -87 -5 -2 -8 -8 -8 -14
0 -5 -6 -15 -12 -22 -7 -8 -19 -22 -26 -32 -7 -11 -39 -57 -72 -103 -33 -46
-60 -88 -60 -92 0 -11 60 -59 75 -59 7 0 28 19 48 43 19 23 52 61 73 83 22 23
67 73 101 112 35 38 90 98 124 133 34 35 91 98 127 139 37 41 85 93 107 116
56 58 167 183 183 205 6 10 15 38 18 62 9 64 -16 113 -65 127 -20 5 -38 9 -41
9 -3 -1 -15 -4 -26 -6z m36 -21 c0 -5 -13 -20 -29 -35 -16 -14 -34 -33 -39
-43 -11 -20 -39 -13 -48 11 -7 18 22 55 43 55 7 0 13 5 13 10 0 6 14 10 30 10
17 0 30 -4 30 -8z"/>
<path d="M3350 3382 c-38 -33 -43 -44 -48 -90 -9 -97 21 -122 283 -242 263
-120 285 -131 285 -144 0 -10 -16 -19 -115 -61 -22 -10 -80 -37 -130 -60 -49
-23 -121 -57 -160 -74 -106 -48 -118 -56 -143 -98 -56 -94 15 -223 123 -223
17 0 65 16 106 36 41 20 151 71 244 114 94 43 217 100 275 128 58 27 137 64
175 82 94 43 125 82 125 161 0 95 -18 109 -320 246 -30 14 -89 41 -130 61
-488 230 -494 231 -570 164z"/>
<path d="M1745 3395 c-51 -24 -447 -206 -490 -225 -22 -10 -105 -50 -185 -88
-164 -80 -180 -96 -180 -182 0 -78 26 -114 114 -155 39 -18 112 -52 161 -75
357 -168 566 -264 599 -277 110 -40 213 52 190 172 -10 56 -57 91 -214 161
-131 59 -254 116 -319 147 -37 18 -36 35 1 50 18 8 76 35 128 59 52 25 148 69
213 99 139 64 183 101 193 164 17 115 -103 200 -211 150z"/>
<path d="M2166 2555 c-14 -13 -26 -31 -26 -40 0 -26 -49 -114 -69 -125 -11 -5
-33 -10 -50 -10 -17 0 -31 -4 -31 -10 0 -16 154 -12 246 7 102 21 138 45 136
92 -2 87 -142 145 -206 86z"/>
</g>
</svg>
